<svg xmlns="http://www.w3.org/2000/svg" viewBox="0 0 640 760" role="img" aria-labelledby="title">
  <title id="title">OpFin stacked lock-up</title>
  <g transform="translate(64 16)" style="color:#353B78">
    <path d="M96 76h184c78 0 142 64 142 142v50c0 78-64 142-142 142h-50l-52 48V354h102c48 0 86-38 86-86v-50c0-48-38-86-86-86H96V76Z" fill="currentColor"/>
    <path d="M96 157h174c15 0 27 12 27 27s-12 27-27 27H96v-54Z" fill="currentColor"/>
    <path d="M96 247h144c15 0 27 12 27 27s-12 27-27 27h-90v130l-54-45V247Z" fill="currentColor"/>
  </g>
  <text x="320" y="660" text-anchor="middle" fill="#353B78" font-family="Inter, Arial, sans-serif" font-size="120" font-weight="600" letter-spacing="-4">OpFin</text>
</svg>
